<svg width="45" height="60" viewBox="0 0 45 60" fill="none" xmlns="http://www.w3.org/2000/svg">
<path d="M44.461 15.9328L44.4601 15.9482V15.9637C44.4601 22.4085 39.5694 28.3312 34.2547 32.6961C31.6134 34.8654 28.9016 36.6214 26.7142 37.8334C25.6203 38.4395 24.663 38.9066 23.9158 39.2204C23.5418 39.3775 23.2263 39.4938 22.9762 39.57C22.714 39.6498 22.5623 39.6733 22.4995 39.6733C22.4367 39.6733 22.285 39.6498 22.0227 39.57C21.7727 39.4938 21.4571 39.3775 21.0832 39.2204C20.336 38.9066 19.3787 38.4395 18.2848 37.8334C16.0974 36.6214 13.3856 34.8654 10.7442 32.6961C5.42959 28.3312 0.538865 22.4085 0.538865 15.9637V15.9482L0.537907 15.9327C0.0814774 8.57013 3.80222 3.19823 8.41509 1.27808C10.7213 0.31809 13.2577 0.214284 15.6442 1.14681C18.0304 2.07918 20.3074 4.06408 22.0581 7.35277L22.4862 8.15691L22.9347 7.36398C24.7977 4.07019 27.1326 2.08134 29.5429 1.14734C31.9523 0.213683 34.4746 0.318845 36.7504 1.27731C41.3024 3.19441 44.9179 8.56248 44.461 15.9328Z" stroke="#C2C2C2"/>
<path d="M14.805 49.1483L14.205 50.2133C13.155 50.0733 12.18 49.8033 11.28 49.4033C10.39 48.9933 9.79 48.4983 9.48 47.9183C9.21 48.5083 8.635 49.0033 7.755 49.4033C6.885 49.7933 5.895 50.0533 4.785 50.1833L4.23 49.1483C5.33 49.0683 6.3 48.8483 7.14 48.4883C7.98 48.1283 8.505 47.6233 8.715 46.9733H4.71V45.9083H14.22V46.9733H10.29C10.45 47.4133 10.785 47.7983 11.295 48.1283C11.815 48.4583 12.37 48.7033 12.96 48.8633C13.55 49.0133 14.165 49.1083 14.805 49.1483ZM13.35 56.7983C13.35 57.8283 12.05 58.3433 9.45 58.3433C6.82 58.3433 5.505 57.8283 5.505 56.7983C5.505 55.7783 6.82 55.2683 9.45 55.2683C12.05 55.2683 13.35 55.7783 13.35 56.7983ZM15.405 51.8933H3.57V50.8283H8.79V49.2533H10.125V50.8283H15.405V51.8933ZM14.43 54.9233H4.56V53.9333H14.43V54.9233ZM12.045 56.7983C12.045 56.3783 11.18 56.1683 9.45 56.1683C7.72 56.1683 6.855 56.3783 6.855 56.7983C6.855 57.2283 7.72 57.4433 9.45 57.4433C11.18 57.4433 12.045 57.2283 12.045 56.7983ZM11.61 53.4383H7.38V52.4033H11.61V53.4383ZM28.7735 51.4133H26.6735V58.2233H25.3385V45.1133H26.6735V50.3183H28.7735V51.4133ZM17.5835 54.0383C17.0235 53.1783 16.7435 52.0583 16.7435 50.6783C16.7435 49.2983 17.0235 48.1833 17.5835 47.3333C18.1435 46.4733 18.9735 46.0433 20.0735 46.0433C21.1735 46.0433 21.9985 46.4733 22.5485 47.3333C23.1085 48.1833 23.3885 49.3033 23.3885 50.6933C23.3885 52.0633 23.1085 53.1783 22.5485 54.0383C21.9985 54.8883 21.1735 55.3133 20.0735 55.3133C18.9735 55.3133 18.1435 54.8883 17.5835 54.0383ZM22.0835 50.6933C22.0835 49.6433 21.9085 48.7983 21.5585 48.1583C21.2085 47.5083 20.7135 47.1833 20.0735 47.1833C19.4335 47.1833 18.9385 47.5033 18.5885 48.1433C18.2485 48.7833 18.0785 49.6333 18.0785 50.6933C18.0785 51.7333 18.2485 52.5733 18.5885 53.2133C18.9385 53.8533 19.4335 54.1733 20.0735 54.1733C20.7135 54.1733 21.2085 53.8533 21.5585 53.2133C21.9085 52.5733 22.0835 51.7333 22.0835 50.6933ZM38.977 46.9283C39.877 47.5483 40.327 48.3683 40.327 49.3883C40.327 50.4083 39.877 51.2283 38.977 51.8483C38.087 52.4683 36.907 52.7783 35.437 52.7783C33.977 52.7783 32.797 52.4683 31.897 51.8483C31.007 51.2283 30.562 50.4083 30.562 49.3883C30.562 48.3683 31.007 47.5483 31.897 46.9283C32.797 46.2983 33.977 45.9833 35.437 45.9833C36.907 45.9833 38.087 46.2983 38.977 46.9283ZM38.962 49.3883C38.962 48.6983 38.637 48.1433 37.987 47.7233C37.347 47.2933 36.497 47.0783 35.437 47.0783C34.377 47.0783 33.527 47.2933 32.887 47.7233C32.247 48.1433 31.927 48.6983 31.927 49.3883C31.927 50.0683 32.247 50.6233 32.887 51.0533C33.537 51.4733 34.387 51.6833 35.437 51.6833C36.497 51.6833 37.347 51.4733 37.987 51.0533C38.637 50.6233 38.962 50.0683 38.962 49.3883ZM41.362 56.5583H29.527V55.4783H32.362V53.1533L33.697 53.1083V55.4783H37.162V53.1083L38.482 53.1533V55.4783H41.362V56.5583Z" fill="#C2C2C2"/>
</svg>

