<svg width="219" height="159" viewBox="0 0 219 159" fill="none" xmlns="http://www.w3.org/2000/svg">
<path d="M107.822 11.1775C80.6218 8.77749 65.8223 10.1774 50.822 15.1775C29.8218 22.1775 -5.56292 48.0007 3.43713 99.5007C10.2194 138.31 52.437 153.406 74.3218 156.176C117.437 161.634 147.399 144.382 169.437 127.301C203.785 100.678 215.633 65.4076 216.937 46.5006C219.097 15.1775 196.822 0.1766 174.322 2.1766C151.822 4.1766 143.822 14.354 107.822 11.1775Z" fill="#EC6536"/>
<path d="M50.822 15.1775L50.3477 13.7545L50.822 15.1775ZM107.822 11.1775L107.69 12.6717L107.822 11.1775ZM174.322 2.1766L174.455 3.67071L174.322 2.1766ZM216.937 46.5006L215.44 46.3974L216.937 46.5006ZM74.3218 156.176L74.1335 157.665L74.3218 156.176ZM3.43713 99.5007L4.91474 99.2425L3.43713 99.5007ZM169.437 127.301L170.356 128.486L169.437 127.301ZM51.2963 16.6005C66.0287 11.6898 80.6012 10.2815 107.69 12.6717L107.954 9.6833C80.6425 7.27349 65.6158 8.66512 50.3477 13.7545L51.2963 16.6005ZM107.69 12.6717C125.87 14.2758 137.041 12.508 146.508 10.0709C156.007 7.62568 163.367 4.65627 174.455 3.67071L174.189 0.682491C162.777 1.69693 154.887 4.81621 145.76 7.16558C136.603 9.52306 125.774 11.2556 107.954 9.6833L107.69 12.6717ZM174.455 3.67071C185.344 2.70279 196.105 5.85488 203.865 12.9495C211.596 20.0178 216.493 31.1313 215.44 46.3974L218.433 46.6038C219.54 30.5468 214.38 18.4983 205.889 10.7354C197.427 2.99876 185.8 -0.349589 174.189 0.682491L174.455 3.67071ZM74.5102 154.688C63.7441 153.326 47.938 148.919 34.0197 140.087C20.1193 131.266 8.21197 118.11 4.91474 99.2425L1.95952 99.759C5.44452 119.701 18.0371 133.498 32.4123 142.62C46.7696 151.731 63.0148 156.257 74.1335 157.665L74.5102 154.688ZM4.91474 99.2425C0.487248 73.9076 6.97729 54.9952 17.0786 41.5527C27.2148 28.0639 41.0394 20.0194 51.2963 16.6005L50.3477 13.7545C39.6043 17.3355 25.2365 25.7027 14.6803 39.7505C4.08925 53.8446 -2.61304 73.5938 1.95952 99.759L4.91474 99.2425ZM215.44 46.3974C214.163 64.9167 202.498 99.7769 168.518 126.115L170.356 128.486C205.071 101.578 217.102 65.8984 218.433 46.6038L215.44 46.3974ZM168.518 126.115C146.631 143.079 117.064 160.075 74.5102 154.688L74.1335 157.665C117.81 163.193 148.167 145.684 170.356 128.486L168.518 126.115Z" fill="#EE9C7F"/>
<path d="M116.345 76.0007C106.482 76.0007 102.255 83.5479 101.316 87.3215C99.7893 93.4536 99.437 101.001 99.437 104.774V104.774C99.437 108.548 99.437 126.001 115.405 126.001C130.981 126.001 130.435 99.5856 130.435 94.8687C130.435 90.1517 129.026 76.0007 116.345 76.0007Z" fill="white"/>
<path d="M101.316 87.3215L102.771 87.6838L101.316 87.3215ZM102.771 87.6838C103.617 84.2842 107.434 77.5007 116.345 77.5007V74.5007C105.53 74.5007 100.892 82.8116 99.8601 86.9592L102.771 87.6838ZM116.345 77.5007C119.216 77.5007 121.368 78.2952 123.011 79.4964C124.671 80.7102 125.894 82.4009 126.787 84.3032C128.589 88.1417 128.935 92.604 128.935 94.8687H131.935C131.935 92.4163 131.576 87.4446 129.503 83.0285C128.458 80.8034 126.952 78.6615 124.781 77.0746C122.594 75.4751 119.814 74.5007 116.345 74.5007V77.5007ZM128.935 94.8687C128.935 97.2603 129.064 104.855 127.306 111.837C126.427 115.33 125.108 118.532 123.176 120.836C121.287 123.087 118.805 124.501 115.405 124.501V127.501C119.794 127.501 123.085 125.612 125.474 122.764C127.82 119.967 129.284 116.271 130.216 112.57C132.079 105.166 131.935 97.194 131.935 94.8687H128.935ZM115.405 124.501C111.704 124.501 109.036 123.496 107.077 122.018C105.102 120.526 103.746 118.475 102.82 116.23C100.949 111.698 100.937 106.664 100.937 104.774H97.937C97.937 106.659 97.9254 112.237 100.047 117.375C101.116 119.966 102.754 122.513 105.27 124.412C107.803 126.324 111.122 127.501 115.405 127.501V124.501ZM100.937 104.774V104.774H97.937V104.774H100.937ZM100.937 104.774C100.937 101.047 101.288 93.6416 102.771 87.6838L99.8601 86.9592C98.2903 93.2656 97.937 100.954 97.937 104.774H100.937Z" fill="#EE9C7F"/>
<path d="M155.345 76.0007C145.482 76.0007 141.255 83.5479 140.316 87.3215C138.789 93.4536 138.437 101.001 138.437 104.774V104.774C138.437 108.548 138.437 126.001 154.405 126.001C169.981 126.001 169.435 99.5856 169.435 94.8687C169.435 90.1517 168.026 76.0007 155.345 76.0007Z" fill="white"/>
<path d="M140.316 87.3215L141.771 87.6838L140.316 87.3215ZM141.771 87.6838C142.617 84.2842 146.434 77.5007 155.345 77.5007V74.5007C144.53 74.5007 139.892 82.8116 138.86 86.9592L141.771 87.6838ZM155.345 77.5007C158.216 77.5007 160.368 78.2952 162.011 79.4964C163.671 80.7102 164.894 82.4009 165.787 84.3032C167.589 88.1417 167.935 92.604 167.935 94.8687H170.935C170.935 92.4163 170.576 87.4446 168.503 83.0285C167.458 80.8034 165.952 78.6615 163.781 77.0746C161.594 75.4751 158.814 74.5007 155.345 74.5007V77.5007ZM167.935 94.8687C167.935 97.2603 168.064 104.855 166.306 111.837C165.427 115.33 164.108 118.532 162.176 120.836C160.287 123.087 157.805 124.501 154.405 124.501V127.501C158.794 127.501 162.085 125.612 164.474 122.764C166.82 119.967 168.284 116.271 169.216 112.57C171.079 105.166 170.935 97.194 170.935 94.8687H167.935ZM154.405 124.501C150.704 124.501 148.036 123.496 146.077 122.018C144.102 120.526 142.746 118.475 141.82 116.23C139.949 111.698 139.937 106.664 139.937 104.774H136.937C136.937 106.659 136.925 112.237 139.047 117.375C140.116 119.966 141.754 122.513 144.27 124.412C146.803 126.324 150.122 127.501 154.405 127.501V124.501ZM139.937 104.774V104.774H136.937V104.774H139.937ZM139.937 104.774C139.937 101.047 140.288 93.6416 141.771 87.6838L138.86 86.9592C137.29 93.2656 136.937 100.954 136.937 104.774H139.937Z" fill="#EE9C7F"/>
<ellipse cx="118.009" cy="110.883" rx="9.43396" ry="14.1509" transform="rotate(4.74218 118.009 110.883)" fill="#EE9C7F"/>
<ellipse cx="157.009" cy="111.883" rx="9.43396" ry="14.1509" transform="rotate(4.74218 157.009 111.883)" fill="#EE9C7F"/>
</svg>
