<svg width="193" height="200" viewBox="0 0 193 200" fill="none" xmlns="http://www.w3.org/2000/svg">
<path d="M33.3046 59.0474C-12.4068 96.3829 2.24246 146.479 15.281 166.861C64.9217 229.456 140.835 188.58 172.571 131.484C204.307 74.3877 190.668 20.5803 161.351 6.42149C131.2 -8.14073 91.7416 11.3181 33.3046 59.0474Z" fill="#F7D04D"/>
<path d="M15.281 166.861L14.0174 167.669L14.0585 167.733L14.1057 167.793L15.281 166.861ZM33.3046 59.0474L32.3557 57.8857L33.3046 59.0474ZM161.351 6.42149L160.699 7.77221L161.351 6.42149ZM172.571 131.484L171.26 130.755L172.571 131.484ZM16.5446 166.052C10.1586 156.07 3.34678 138.739 3.76122 119.344C4.1742 100.017 11.7584 78.5824 34.2535 60.2092L32.3557 57.8857C9.1394 76.848 1.19249 99.1293 0.761903 119.28C0.332774 139.362 7.36488 157.27 14.0174 167.669L16.5446 166.052ZM34.2535 60.2092C63.4459 36.3658 87.7881 19.6782 108.528 10.753C129.244 1.83801 146.16 0.750451 160.699 7.77221L162.004 5.07077C146.391 -2.46969 128.502 -1.10893 107.342 7.99731C86.2055 17.0933 61.6002 33.9998 32.3557 57.8857L34.2535 60.2092ZM160.699 7.77221C174.763 14.5644 185.307 31.0146 188.37 53.0577C191.428 75.0581 186.988 102.458 171.26 130.755L173.882 132.213C189.89 103.413 194.499 75.3618 191.342 52.6447C188.191 29.9703 177.257 12.4373 162.004 5.07077L160.699 7.77221ZM171.26 130.755C155.54 159.036 128.902 183.238 100.174 192.631C85.8303 197.321 71.0016 198.31 56.7405 194.325C42.4881 190.342 28.6945 181.361 16.4563 165.929L14.1057 167.793C26.6879 183.658 40.9987 193.041 55.9331 197.214C70.8589 201.385 86.2996 200.324 101.106 195.482C130.679 185.813 157.865 161.028 173.882 132.213L171.26 130.755Z" fill="#FFE690"/>
<path d="M6.79645 92.0767C6.55779 97.2417 7.79047 111.788 24.5601 113.329C42.4883 114.977 47.7289 98.7428 48.4779 82.5342C48.6688 78.4022 49.987 59.3549 30.4908 58.7377C9.79835 58.0826 7.03512 86.9117 6.79645 92.0767Z" fill="white"/>
<path d="M24.5601 113.329L24.7191 111.836L24.5601 113.329ZM30.4908 58.7377L30.4215 60.2361L30.4908 58.7377ZM48.4779 82.5342L49.9771 82.5817L48.4779 82.5342ZM24.7191 111.836C16.8458 111.113 12.7766 107.393 10.6285 103.345C8.42837 99.1988 8.18251 94.5737 8.2957 92.1242L5.29721 92.0293C5.17173 94.7447 5.42288 99.9754 7.97184 104.779C10.5729 109.681 15.5048 114.005 24.4012 114.822L24.7191 111.836ZM8.2957 92.1242C8.41169 89.6141 9.1493 81.3229 12.3534 73.7942C15.5563 66.2682 20.9969 59.9377 30.4215 60.2361L30.56 57.2393C19.2922 56.8825 13.005 64.6391 9.59351 72.6552C6.18322 80.6685 5.41988 89.3744 5.29721 92.0293L8.2957 92.1242ZM30.4215 60.2361C35.0414 60.3823 38.3106 61.6127 40.6479 63.344C42.9918 65.0802 44.5015 67.3968 45.467 69.8784C47.4208 74.9002 47.0757 80.3865 46.9786 82.4867L49.9771 82.5817C50.071 80.55 50.4805 74.4466 48.267 68.7574C47.1489 65.8835 45.3445 63.0643 42.4583 60.9264C39.5653 58.7836 35.6883 57.4016 30.56 57.2393L30.4215 60.2361ZM46.9786 82.4867C46.608 90.5071 45.1273 98.3053 41.6884 103.852C39.9845 106.6 37.8191 108.765 35.0879 110.159C32.3592 111.552 28.9646 112.227 24.7191 111.836L24.4012 114.822C29.1198 115.256 33.1033 114.519 36.4229 112.825C39.7401 111.132 42.2932 108.534 44.234 105.404C48.0847 99.193 49.5988 90.7699 49.9771 82.5817L46.9786 82.4867Z" fill="#FFE690"/>
<path d="M57.3883 101.026C57.1496 106.191 58.3823 120.737 75.1519 122.278C93.0801 123.926 98.3207 107.692 99.0697 91.4831C99.2606 87.3511 100.579 68.3038 81.0826 67.6865C60.3901 67.0314 57.6269 95.8606 57.3883 101.026Z" fill="white"/>
<path d="M75.1519 122.278L75.3109 120.785L75.1519 122.278ZM81.0826 67.6865L81.0133 69.1849L81.0826 67.6865ZM99.0697 91.4831L100.569 91.5305L99.0697 91.4831ZM75.3109 120.785C67.4376 120.062 63.3684 116.342 61.2203 112.294C59.0202 108.148 58.7743 103.523 58.8875 101.073L55.889 100.978C55.7635 103.694 56.0147 108.924 58.5636 113.728C61.1647 118.63 66.0966 122.954 74.993 123.771L75.3109 120.785ZM58.8875 101.073C59.0035 98.5629 59.7411 90.2718 62.9452 82.743C66.1481 75.2171 71.5887 68.8866 81.0133 69.1849L81.1518 66.1881C69.884 65.8314 63.5968 73.5879 60.1853 81.604C56.775 89.6173 56.0117 98.3232 55.889 100.978L58.8875 101.073ZM81.0133 69.1849C85.6332 69.3312 88.9024 70.5616 91.2397 72.2928C93.5836 74.029 95.0933 76.3457 96.0588 78.8273C98.0126 83.849 97.6675 89.3353 97.5704 91.4356L100.569 91.5305C100.663 89.4988 101.072 83.3955 98.8588 77.7062C97.7407 74.8324 95.9363 72.0132 93.05 69.8753C90.1571 67.7325 86.2801 66.3505 81.1518 66.1881L81.0133 69.1849ZM97.5704 91.4356C97.1998 99.456 95.7191 107.254 92.2802 112.801C90.5763 115.549 88.4109 117.714 85.6797 119.108C82.951 120.501 79.5564 121.175 75.3109 120.785L74.993 123.771C79.7116 124.205 83.6951 123.468 87.0147 121.774C90.3319 120.081 92.885 117.483 94.8258 114.353C98.6765 108.142 100.191 99.7187 100.569 91.5305L97.5704 91.4356Z" fill="#FFE690"/>
<ellipse cx="20.8924" cy="83.4491" rx="12.488" ry="16.5765" transform="rotate(-168.679 20.8924 83.4491)" fill="#FFE690"/>
<ellipse cx="71.4847" cy="92.3979" rx="12.488" ry="16.5765" transform="rotate(-168.679 71.4847 92.3979)" fill="#FFE690"/>
</svg>


