<svg width="129" height="136" viewBox="0 0 129 136" fill="none" xmlns="http://www.w3.org/2000/svg">
<path d="M22.3134 40.7074C-8.1667 65.6025 1.60135 99.0065 10.2954 112.597C43.3955 154.335 94.0137 127.079 115.175 89.0077C136.337 50.9362 127.242 15.0577 107.694 5.61676C87.5891 -4.09324 61.2788 8.88181 22.3134 40.7074Z" fill="#F7D04D"/>
<path d="M10.2954 112.597L9.03181 113.405L9.07282 113.469L9.12009 113.529L10.2954 112.597ZM22.3134 40.7074L21.3645 39.5457L21.3645 39.5457L22.3134 40.7074ZM107.694 5.61676L107.042 6.96748L107.042 6.96748L107.694 5.61676ZM11.5589 111.788C7.34522 105.202 2.83985 93.7414 3.11375 80.9234C3.38619 68.1736 8.38282 54.0222 23.2623 41.8692L21.3645 39.5457C5.76386 52.2877 0.404475 67.2858 0.11443 80.8593C-0.174159 94.3647 4.55151 106.402 9.03181 113.405L11.5589 111.788ZM23.2623 41.8692C42.7189 25.9776 58.9063 14.8869 72.6694 8.96407C86.4085 3.05149 97.5264 2.37183 107.042 6.96748L108.347 4.26604C97.757 -0.848314 85.6671 0.104553 71.4835 6.2084C57.3237 12.302 40.8733 23.6116 21.3645 39.5457L23.2623 41.8692ZM107.042 6.96748C116.221 11.4008 123.187 22.1892 125.215 36.7823C127.237 51.3326 124.305 69.4944 113.864 88.2789L116.486 89.7364C127.207 70.4495 130.308 51.6363 128.187 36.3693C126.071 21.145 118.715 9.27369 108.347 4.26604L107.042 6.96748ZM113.864 88.2789C103.432 107.047 85.7606 123.088 66.7461 129.305C57.2591 132.407 47.4733 133.055 38.0748 130.428C28.685 127.804 19.5737 121.882 11.4707 111.665L9.12009 113.529C17.5671 124.18 27.1956 130.503 37.2674 133.318C47.3306 136.13 57.7283 135.41 67.6785 132.156C87.5385 125.663 105.757 109.039 116.486 89.7364L113.864 88.2789Z" fill="#F7D04D"/>
<path d="M4.63784 62.7311C4.4787 66.1751 5.30064 75.8747 16.4826 76.9022C28.437 78.0007 31.9313 67.176 32.4308 56.3682C32.5581 53.6131 33.437 40.9124 20.4371 40.5009C6.63948 40.064 4.79698 59.2872 4.63784 62.7311Z" fill="white"/>
<path d="M16.4826 76.9022L16.6415 75.4094L16.4826 76.9022ZM20.4371 40.5009L20.5063 39.0025L20.4371 40.5009ZM32.4308 56.3682L30.9315 56.3208L32.4308 56.3682ZM16.6415 75.4094C11.5621 74.9426 8.99248 72.5629 7.63563 70.0059C6.22671 67.3507 6.06366 64.3677 6.13708 62.7786L3.13859 62.6837C3.05287 64.5386 3.22122 68.1273 4.97897 71.4398C6.78879 74.8505 10.2211 77.8343 16.3236 78.3951L16.6415 75.4094ZM6.13708 62.7786C6.21331 61.129 6.70086 55.6696 8.80297 50.7302C10.9039 45.7936 14.3907 41.81 20.3678 41.9993L20.5063 39.0025C12.6859 38.7549 8.3526 44.1645 6.0431 49.5912C3.73478 55.0151 3.2215 60.8893 3.13859 62.6837L6.13708 62.7786ZM20.3678 41.9993C23.3636 42.0941 25.4422 42.8893 26.9081 43.9751C28.3807 45.0659 29.3383 46.5268 29.9567 48.1162C31.2162 51.3535 30.9968 54.9089 30.9315 56.3208L33.93 56.4157C33.9921 55.0724 34.2758 50.8999 32.7566 46.9952C31.9856 45.0136 30.7334 43.05 28.7185 41.5576C26.697 40.0602 24.0105 39.1134 20.5063 39.0025L20.3678 41.9993ZM30.9315 56.3208C30.6857 61.6408 29.7039 66.7364 27.4795 70.3242C26.3828 72.093 25.0035 73.4645 23.28 74.3441C21.5589 75.2226 19.3936 75.6623 16.6415 75.4094L16.3236 78.3951C19.5487 78.6915 22.3031 78.19 24.615 77.01C26.9245 75.8312 28.6915 74.027 30.0251 71.876C32.6613 67.6241 33.6764 61.9035 33.93 56.4157L30.9315 56.3208Z" fill="#FFE690"/>
<path d="M38.3722 68.6982C38.2131 72.1421 39.035 81.8418 50.2169 82.8693C62.1713 83.9678 65.6657 73.1431 66.1651 62.3353C66.2924 59.5801 67.1714 46.8795 54.1714 46.4679C40.3739 46.0311 38.5314 65.2542 38.3722 68.6982Z" fill="white"/>
<path d="M50.2169 82.8693L50.3758 81.3764L50.2169 82.8693ZM54.1714 46.4679L54.2407 44.9695L54.1714 46.4679ZM66.1651 62.3353L64.6659 62.2878L66.1651 62.3353ZM50.3758 81.3764C45.2965 80.9097 42.7269 78.5299 41.37 75.9729C39.9611 73.3178 39.798 70.3347 39.8715 68.7456L36.873 68.6507C36.7872 70.5056 36.9556 74.0943 38.7133 77.4069C40.5232 80.8175 43.9554 83.8014 50.058 84.3621L50.3758 81.3764ZM39.8715 68.7456C39.9477 67.096 40.4352 61.6366 42.5373 56.6972C44.6383 51.7606 48.125 47.7771 54.1022 47.9663L54.2407 44.9695C46.4202 44.7219 42.087 50.1315 39.7775 55.5582C37.4692 60.9822 36.9559 66.8563 36.873 68.6507L39.8715 68.7456ZM54.1022 47.9663C57.098 48.0611 59.1766 48.8563 60.6425 49.9421C62.1151 51.0329 63.0727 52.4939 63.691 54.0833C64.9505 57.3205 64.7311 60.8759 64.6659 62.2878L67.6644 62.3828C67.7265 61.0394 68.0102 56.867 66.491 52.9622C65.72 50.9806 64.4678 49.0171 62.4529 47.5246C60.4314 46.0272 57.7449 45.0804 54.2407 44.9695L54.1022 47.9663ZM64.6659 62.2878C64.4201 67.6078 63.4383 72.7035 61.2139 76.2912C60.1172 78.0601 58.7379 79.4315 57.0144 80.3112C55.2933 81.1896 53.128 81.6293 50.3758 81.3764L50.058 84.3621C53.2831 84.6585 56.0375 84.157 58.3494 82.977C60.6588 81.7983 62.4258 79.994 63.7595 77.8431C66.3957 73.5911 67.4108 67.8706 67.6644 62.3828L64.6659 62.2878Z" fill="#FFE690"/>
<ellipse cx="14.0371" cy="56.9783" rx="8.32694" ry="11.0531" transform="rotate(-168.679 14.0371 56.9783)" fill="#FFE690"/>
<ellipse cx="47.7715" cy="62.9453" rx="8.32694" ry="11.0531" transform="rotate(-168.679 47.7715 62.9453)" fill="#FFE690"/>
</svg>

