<svg width="87" height="88" viewBox="0 0 87 88" fill="none" xmlns="http://www.w3.org/2000/svg">
<path d="M19.322 11.6765C-4.678 22.0765 1.98868 47.5099 8.822 58.1765C16.3223 70.6765 35.2221 89.2765 58.8221 85.6765C88.3221 81.1765 89.3221 39.6765 80.8221 24.1765C72.3221 8.67654 49.322 -1.32346 19.322 11.6765Z" fill="#6CB0F7"/>
<path d="M8.822 58.1765L10.1082 57.4048L10.0969 57.3859L10.0851 57.3674L8.822 58.1765ZM19.322 11.6765L18.7256 10.3002L19.322 11.6765ZM58.8221 85.6765L59.0483 87.1594L58.8221 85.6765ZM10.0851 57.3674C6.79912 52.2381 3.54838 43.5197 4.00738 34.9064C4.45949 26.4225 8.49372 18.0036 19.9184 13.0529L18.7256 10.3002C6.15029 15.7495 1.51786 25.2472 1.01163 34.7467C0.512306 44.1167 4.01157 53.4483 7.55896 58.9857L10.0851 57.3674ZM19.9184 13.0529C49.3877 0.282835 71.4668 10.2364 79.5069 24.8978L82.1374 23.4553C73.1775 7.11671 49.2563 -2.92976 18.7256 10.3002L19.9184 13.0529ZM79.5069 24.8978C83.5454 32.2622 85.4218 46.1245 82.6082 58.7246C79.8066 71.2709 72.4968 82.0732 58.596 84.1937L59.0483 87.1594C74.6475 84.7798 82.5877 72.5821 85.5361 59.3784C88.4725 46.2285 86.5988 31.5909 82.1374 23.4553L79.5069 24.8978ZM58.596 84.1937C47.2644 85.9222 37.0133 82.334 28.6188 76.7173C20.2117 71.0923 13.7586 63.4886 10.1082 57.4048L7.53578 58.9483C11.3856 65.3645 18.1326 73.3108 26.9505 79.2107C35.781 85.1191 46.7799 89.0308 59.0483 87.1594L58.596 84.1937Z" fill="#97CAFF"/>
<path d="M36.3926 17.8447C35.6156 20.663 34.4956 28.8337 43.7088 31.7359C53.5584 34.8386 58.5189 26.5301 60.9571 17.6857C61.5787 15.4311 64.6897 5.09143 53.8324 2.36475C42.309 -0.529216 37.1696 15.0264 36.3926 17.8447Z" fill="white"/>
<path d="M43.7088 31.7359L43.2249 33.1578L43.7088 31.7359ZM53.8324 2.36475L53.4338 3.81081L53.4338 3.81081L53.8324 2.36475ZM60.9571 17.6857L59.5023 17.3204L60.9571 17.6857ZM44.1926 30.3139C40.0666 29.0142 38.4018 26.6239 37.7584 24.3332C37.0852 21.9362 37.495 19.4883 37.8474 18.2101L34.9378 17.4794C34.5132 19.0195 33.9745 22.0661 34.8503 25.1844C35.756 28.4092 38.1378 31.5554 43.2249 33.1578L44.1926 30.3139ZM37.8474 18.2101C38.2163 16.8721 39.6361 12.4807 42.3011 8.81756C44.9593 5.16386 48.5538 2.58525 53.4338 3.81081L54.2311 0.918701C47.5876 -0.749715 42.8507 3.00252 39.864 7.10773C36.8843 11.2035 35.3459 15.9991 34.9378 17.4794L37.8474 18.2101ZM53.4338 3.81081C55.9058 4.43162 57.4692 5.45352 58.4686 6.58543C59.4723 7.72231 59.9905 9.06528 60.2085 10.4589C60.6543 13.3091 59.8222 16.1599 59.5023 17.3204L62.412 18.0511C62.7136 16.9569 63.7478 13.5105 63.1902 9.94563C62.9065 8.13165 62.2056 6.23754 60.7584 4.5984C59.3069 2.95429 57.1877 1.66122 54.2311 0.9187L53.4338 3.81081ZM59.5023 17.3204C58.306 21.6596 56.543 25.6433 54.0464 28.1567C52.8191 29.3923 51.438 30.2494 49.8675 30.6493C48.2985 31.0488 46.4325 31.0195 44.1926 30.3139L43.2249 33.1578C45.9099 34.0036 48.3575 34.0992 50.5649 33.5371C52.771 32.9754 54.6292 31.7844 56.178 30.2252C59.2336 27.1489 61.17 22.5562 62.412 18.0511L59.5023 17.3204Z" fill="#97CAFF"/>
<path d="M58.5116 29.7512C57.9942 32.6265 57.6221 40.8628 67.0623 42.9434C77.1548 45.1677 81.3394 36.4564 82.9633 27.4331C83.3773 25.1329 85.535 14.5611 74.4732 12.7999C62.7326 10.9307 59.0291 26.8758 58.5116 29.7512Z" fill="white"/>
<path d="M67.0623 42.9434L66.7098 44.4032L67.0623 42.9434ZM74.4732 12.7999L74.7389 11.3236L74.4732 12.7999ZM82.9633 27.4331L84.4446 27.669L82.9633 27.4331ZM67.4149 41.4836C63.1861 40.5516 61.3104 38.3167 60.4614 36.0922C59.5729 33.7643 59.7584 31.2908 59.993 29.987L57.0303 29.5153C56.7475 31.0869 56.4881 34.1691 57.6443 37.1984C58.8399 40.3311 61.4983 43.2546 66.7098 44.4032L67.4149 41.4836ZM59.993 29.987C60.2386 28.6221 61.2531 24.1238 63.574 20.2414C65.8885 16.3697 69.2339 13.4844 74.2075 14.2762L74.7389 11.3236C67.9719 10.2463 63.5953 14.3989 60.9935 18.7512C58.3981 23.0929 57.3021 28.0049 57.0303 29.5153L59.993 29.987ZM74.2075 14.2762C76.7266 14.6773 78.3772 15.5579 79.4757 16.5976C80.579 17.6418 81.2172 18.9337 81.5611 20.3023C82.2643 23.1014 81.695 26.0133 81.482 27.1973L84.4446 27.669C84.6455 26.5527 85.3621 23.0286 84.4823 19.5265C84.0346 17.7444 83.164 15.9194 81.5737 14.4142C79.9786 12.9045 77.7507 11.8032 74.7389 11.3236L74.2075 14.2762ZM81.482 27.1973C80.6853 31.6241 79.2919 35.7463 77.0343 38.4687C75.9245 39.807 74.627 40.7822 73.0989 41.3187C71.5722 41.8546 69.7104 41.9895 67.4149 41.4836L66.7098 44.4032C69.4604 45.0094 71.9065 44.8895 74.0536 44.1357C76.1994 43.3824 77.9418 42.0329 79.3428 40.3435C82.1066 37.0105 83.6174 32.2654 84.4446 27.669L81.482 27.1973Z" fill="#97CAFF"/>
<ellipse cx="52.7283" cy="11.2481" rx="7.17425" ry="8.5957" transform="rotate(-163.548 52.7283 11.2481)" fill="#97CAFF"/>
<ellipse cx="75.1106" cy="21.5953" rx="7.17425" ry="8.34873" transform="rotate(-168.679 75.1106 21.5953)" fill="#97CAFF"/>
</svg>
