<svg width="130" height="136" viewBox="0 0 130 136" fill="none" xmlns="http://www.w3.org/2000/svg">
<path d="M22.8764 40.7067C-7.60371 65.6018 2.16434 99.0058 10.8584 112.596C43.9585 154.334 94.5767 127.078 115.738 89.0069C136.9 50.9355 127.805 15.057 108.257 5.61603C88.1521 -4.09397 61.8418 8.88108 22.8764 40.7067Z" fill="#F7D04D"/>
<path d="M10.8584 112.596L9.5948 113.404L9.6358 113.468L9.68308 113.528L10.8584 112.596ZM22.8764 40.7067L21.9275 39.5449L21.9275 39.5449L22.8764 40.7067ZM108.257 5.61603L107.605 6.96675L107.605 6.96675L108.257 5.61603ZM12.1219 111.788C7.90821 105.201 3.40283 93.7406 3.67673 80.9227C3.94918 68.1729 8.9458 54.0214 23.8252 41.8684L21.9275 39.5449C6.32685 52.287 0.967464 67.2851 0.677419 80.8586C0.388829 94.364 5.11449 106.401 9.5948 113.404L12.1219 111.788ZM23.8252 41.8684C43.2819 25.9769 59.4693 14.8862 73.2324 8.96333C86.9715 3.05076 98.0893 2.3711 107.605 6.96675L108.91 4.26531C98.32 -0.849045 86.2301 0.10382 72.0465 6.20767C57.8867 12.3012 41.4362 23.6109 21.9275 39.5449L23.8252 41.8684ZM107.605 6.96675C116.784 11.4001 123.75 22.1885 125.778 36.7815C127.8 51.3319 124.868 69.4936 114.427 88.2782L117.049 89.7357C127.77 70.4488 130.871 51.6355 128.75 36.3686C126.634 21.1442 119.278 9.27295 108.91 4.26531L107.605 6.96675ZM114.427 88.2782C103.995 107.047 86.3236 123.087 67.3091 129.304C57.822 132.406 48.0363 133.054 38.6378 130.428C29.248 127.804 20.1367 121.882 12.0336 111.664L9.68308 113.528C18.1301 124.179 27.7586 130.502 37.8304 133.317C47.8936 136.129 58.2913 135.409 68.2415 132.156C88.1015 125.662 106.32 109.039 117.049 89.7357L114.427 88.2782Z" fill="#FFE690"/>
<path d="M5.63784 62.7311C5.4787 66.1751 6.30064 75.8747 17.4826 76.9022C29.437 78.0007 32.9313 67.176 33.4308 56.3682C33.5581 53.6131 34.437 40.9124 21.4371 40.5009C7.63948 40.064 5.79698 59.2872 5.63784 62.7311Z" fill="white"/>
<path d="M17.4826 76.9022L17.6415 75.4094L17.4826 76.9022ZM21.4371 40.5009L21.5063 39.0025L21.4371 40.5009ZM33.4308 56.3682L31.9315 56.3208L33.4308 56.3682ZM17.6415 75.4094C12.5621 74.9426 9.99248 72.5629 8.63563 70.0059C7.22671 67.3507 7.06366 64.3677 7.13708 62.7786L4.13859 62.6837C4.05287 64.5386 4.22122 68.1273 5.97897 71.4398C7.78879 74.8505 11.2211 77.8343 17.3236 78.3951L17.6415 75.4094ZM7.13708 62.7786C7.21331 61.129 7.70086 55.6696 9.80297 50.7302C11.9039 45.7936 15.3907 41.81 21.3678 41.9993L21.5063 39.0025C13.6859 38.7549 9.3526 44.1645 7.0431 49.5912C4.73478 55.0151 4.2215 60.8893 4.13859 62.6837L7.13708 62.7786ZM21.3678 41.9993C24.3636 42.0941 26.4422 42.8893 27.9081 43.9751C29.3807 45.0659 30.3383 46.5268 30.9567 48.1162C32.2162 51.3535 31.9968 54.9089 31.9315 56.3208L34.93 56.4157C34.9921 55.0724 35.2758 50.8999 33.7566 46.9952C32.9856 45.0136 31.7334 43.05 29.7185 41.5576C27.697 40.0602 25.0105 39.1134 21.5063 39.0025L21.3678 41.9993ZM31.9315 56.3208C31.6857 61.6408 30.7039 66.7364 28.4795 70.3242C27.3828 72.093 26.0035 73.4645 24.28 74.3441C22.5589 75.2226 20.3936 75.6623 17.6415 75.4094L17.3236 78.3951C20.5487 78.6915 23.3031 78.19 25.615 77.01C27.9245 75.8312 29.6915 74.027 31.0251 71.876C33.6613 67.6241 34.6764 61.9035 34.93 56.4157L31.9315 56.3208Z" fill="#FFE690"/>
<path d="M38.9352 68.697C38.7761 72.1409 39.598 81.8406 50.7799 82.8681C62.7343 83.9665 66.2287 73.1419 66.7281 62.3341C66.8554 59.5789 67.7344 46.8783 54.7344 46.4667C40.9368 46.0299 39.0943 65.253 38.9352 68.697Z" fill="white"/>
<path d="M50.7799 82.8681L50.9388 81.3752L50.7799 82.8681ZM54.7344 46.4667L54.8036 44.9683L54.7344 46.4667ZM66.7281 62.3341L65.2289 62.2866L66.7281 62.3341ZM50.9388 81.3752C45.8595 80.9084 43.2898 78.5287 41.933 75.9717C40.5241 73.3166 40.361 70.3335 40.4344 68.7444L37.436 68.6495C37.3502 70.5044 37.5186 74.0931 39.2763 77.4057C41.0862 80.8163 44.5184 83.8002 50.621 84.3609L50.9388 81.3752ZM40.4344 68.7444C40.5107 67.0948 40.9982 61.6354 43.1003 56.696C45.2013 51.7594 48.688 47.7758 54.6652 47.9651L54.8036 44.9683C46.9832 44.7207 42.65 50.1303 40.3405 55.557C38.0321 60.981 37.5189 66.8551 37.436 68.6495L40.4344 68.7444ZM54.6652 47.9651C57.6609 48.0599 59.7396 48.8551 61.2055 49.9409C62.6781 51.0317 63.6357 52.4926 64.254 54.0821C65.5135 57.3193 65.2941 60.8747 65.2289 62.2866L68.2274 62.3815C68.2894 61.0382 68.5732 56.8658 67.054 52.961C66.283 50.9794 65.0308 49.0158 63.0159 47.5234C60.9943 46.026 58.3079 45.0792 54.8036 44.9683L54.6652 47.9651ZM65.2289 62.2866C64.983 67.6066 64.0013 72.7023 61.7768 76.29C60.6801 78.0588 59.3009 79.4303 57.5774 80.3099C55.8563 81.1884 53.691 81.6281 50.9388 81.3752L50.621 84.3609C53.8461 84.6573 56.6005 84.1558 58.9123 82.9758C61.2218 81.7971 62.9888 79.9928 64.3224 77.8418C66.9587 73.5899 67.9738 67.8693 68.2274 62.3815L65.2289 62.2866Z" fill="#FFE690"/>
<ellipse cx="14.6001" cy="56.9775" rx="8.32694" ry="11.0531" transform="rotate(-168.679 14.6001 56.9775)" fill="#FFE690"/>
<ellipse cx="48.3345" cy="62.9443" rx="8.32694" ry="11.0531" transform="rotate(-168.679 48.3345 62.9443)" fill="#FFE690"/>
</svg>



